<svg width="0" height="0" class="hidden">
  <symbol viewBox="0 0 70 70" fill="none" xmlns="http://www.w3.org/2000/svg" id="antenna">
    <path d="M67.316 48.339l-18.47-18.605 2.05-10.097a4.655 4.655 0 0 0 1.66.319h.014a4.723 4.723 0 1 0-4.394-3.14l-10.85 1.325L19.628.35a1.166 1.166 0 0 0-.824-.35 1.17 1.17 0 0 0-.817.34L14.68 3.63a1.167 1.167 0 0 0 0 1.65l1.78 1.805a32.686 32.686 0 0 0 5.511 38.638c.094.09.202.161.32.213a6.77 6.77 0 0 0-.114 1.197v13.534h-14A5.84 5.84 0 0 0 2.342 66.5v2.333c0 .645.523 1.167 1.167 1.167h53.667c.644 0 1.166-.522 1.166-1.167V66.5a5.84 5.84 0 0 0-5.833-5.833h-14v-5.998c2.193.46 4.428.694 6.669.7a32.483 32.483 0 0 0 15.4-3.901l1.79 1.8c.216.221.513.347.823.35.306-.002.6-.124.817-.34l3.308-3.29a1.167 1.167 0 0 0 0-1.65zM50.925 13.635a2.333 2.333 0 1 1 1.645 3.987h-.008a2.333 2.333 0 0 1-1.633-3.987h-.004zM48.178 21.3l-1.309 6.444-2.571-2.587 3.88-3.857zm-1.325-1.973l-4.2 4.176-3.25-3.267 7.45-.909zM52.509 63a3.5 3.5 0 0 1 3.5 3.5v1.167H4.676V66.5a3.5 3.5 0 0 1 3.5-3.5h44.333zm-16.333-4.667v2.334H24.509v-2.334h11.667zM24.509 56v-8.867c0-2.83 2.617-5.133 5.833-5.133 3.217 0 5.834 2.303 5.834 5.133V56H24.509zm14-3.71v-5.157c0-4.117-3.663-7.466-8.167-7.466a8.312 8.312 0 0 0-7.177 3.907A30.34 30.34 0 0 1 18.18 8.82l40.692 40.925a30.233 30.233 0 0 1-20.363 2.544zm24.695-1.496l-1.644-1.653L18.792 6.116l-1.65-1.655 1.65-1.645L36.15 20.272c.008 0 .013.015.021.021l28.688 28.856-1.655 1.645z" fill="#212121"></path>
    <path d="M30.353 44.333h-.01a3.5 3.5 0 1 0-.011 7h.01a3.5 3.5 0 0 0 .01-7zm.816 4.327a1.166 1.166 0 1 1-.827-1.993 1.166 1.166 0 0 1 .817 1.993h.01z" fill="#2196F3"></path>
  </symbol>
  <symbol viewBox="0 0 70 70" fill="none" xmlns="http://www.w3.org/2000/svg" id="astronaut">
    <path d="M69.943 9.896a1.168 1.168 0 0 0-.941-.793l-4.179-.608-1.87-3.787c-.392-.798-1.7-.798-2.092 0l-1.87 3.787-4.18.608a1.167 1.167 0 0 0-.648 1.99l3.026 2.948-.714 4.162c-.074.438.105.88.464 1.142a1.16 1.16 0 0 0 1.23.088l3.737-1.966 3.738 1.966a1.168 1.168 0 0 0 1.693-1.23l-.713-4.162 3.025-2.949a1.17 1.17 0 0 0 .294-1.196zM64.556 12.8c-.274.267-.4.655-.335 1.033l.418 2.437-2.189-1.15a1.165 1.165 0 0 0-1.087 0l-2.19 1.15.419-2.437a1.168 1.168 0 0 0-.335-1.033l-1.773-1.726 2.448-.356c.38-.055.708-.294.879-.639l1.094-2.216L63 10.078c.17.345.499.584.879.639l2.448.355-1.77 1.727zm-7.389 32.092h-2.334v2.334h2.334v-2.334zm0 4.668h-2.334v2.332h2.334V49.56zm2.333-2.334h-2.333v2.333H59.5v-2.333zm-4.666 0H52.5v2.333h2.334v-2.333zM49 57.726h-2.333v2.333H49v-2.333zm0 4.667h-2.333v2.333H49v-2.333zm2.333-2.333H49v2.333h2.333v-2.334zm-4.666 0h-2.334v2.333h2.334v-2.334zM35 53.06h-2.334v2.333H35v-2.334zm0 4.666h-2.334v2.333H35v-2.333zm2.333-2.333H35v2.333h2.333v-2.333zm-4.667 0h-2.333v2.333h2.333v-2.333zM12.833 13.392h-2.334v2.333h2.334v-2.333zm0 4.667h-2.334v2.333h2.334v-2.333zm2.333-2.334h-2.333v2.334h2.333v-2.334zm-4.666 0H8.165v2.334h2.333v-2.334z" fill="#2196F3"></path>
    <path d="M54.063 30.974a3.88 3.88 0 0 0-2.599-1.541 3.886 3.886 0 0 0-2.93.77l-2.74 2.097-.001.002-4.151 3.1-2.97-1.184c5.296-2.376 8.998-7.674 8.998-13.825 0-8.363-6.83-15.167-15.227-15.167S17.215 12.03 17.215 20.393c0 3.031.907 5.85 2.45 8.222l-6.046-.053h-.01c-.019 0-.034.01-.051.01a1.14 1.14 0 0 0-.34.068c-.028.011-.057.017-.084.03-.014.005-.028.006-.042.014L6.02 32.175l-.003.001-4.141 1.992a.898.898 0 0 0-.138.077A3.895 3.895 0 0 0 .43 39.267a3.884 3.884 0 0 0 2.31 1.945 3.891 3.891 0 0 0 3.016-.281l3.036-1.614 4.952-2.558 2.968-.017L4.808 48.588c0 .002-.002.002-.003.003l-2.929 2.916a3.607 3.607 0 0 0-1.072 2.576c0 .973.38 1.89 1.072 2.579a3.647 3.647 0 0 0 2.58 1.062c.936 0 1.869-.355 2.582-1.062l2.875-2.863 3.808-2.843 1.97 1.962-3.854 3.837-.003.002-2.928 2.917a3.607 3.607 0 0 0-1.073 2.576c0 .973.38 1.889 1.073 2.579a3.65 3.65 0 0 0 2.58 1.061c.935 0 1.87-.354 2.582-1.061l2.93-2.917 4.686-4.667.002-.003 2.21-2.188-.01-.008c.015-.014.035-.019.049-.034l11.3-12.377 7.593 1.08c.055.008.11.012.164.012.142 0 .278-.034.41-.084.039-.014.072-.033.109-.051.042-.021.086-.033.126-.06l7.029-4.667c.026-.017.04-.045.064-.064.028-.022.063-.031.089-.056l2.78-2.605a3.892 3.892 0 0 0 .465-5.166zM4.66 38.872a1.56 1.56 0 0 1-1.221.113 1.564 1.564 0 0 1-.465-2.755l2.874-1.383.692 2.022.29.85-2.17 1.153zm7.65-3.998l-3.387 1.75-.558-1.633-.402-1.174 4.434-2.189-.087 3.246zm33.03-14.482c0 2.009-.48 3.904-1.31 5.599l-9.147-4.155A4.07 4.07 0 0 0 33.16 18.8l3.2-10.632c5.202 1.655 8.98 6.507 8.98 12.224zm-25.788 0c0-7.076 5.784-12.834 12.894-12.834.553 0 1.094.047 1.63.115L30.943 18.07c-.042-.001-.081-.013-.125-.013a4.094 4.094 0 0 0-4.096 4.084 4.094 4.094 0 0 0 4.096 4.083c1.52 0 2.832-.838 3.54-2.066l8.45 3.838c-2.352 3.165-6.114 5.228-10.362 5.228-7.11 0-12.894-5.757-12.894-12.833zm13.03 1.75a1.76 1.76 0 0 1-1.764 1.75 1.759 1.759 0 0 1-1.762-1.75c0-.965.79-1.75 1.762-1.75s1.763.785 1.763 1.75zM5.391 55.007a1.331 1.331 0 0 1-1.87.002 1.3 1.3 0 0 1 0-1.847l2.105-2.097L7.49 52.92l-2.097 2.088zm7.03 8.167a1.33 1.33 0 0 1-1.87.002 1.3 1.3 0 0 1 0-1.847l2.106-2.098.88.876.983.978-2.099 2.09zm7.616-7.588l-.003.002-3.86 3.85-.882-.876-.982-.977 3.857-3.84v-.001l.004-.002c.087-.088.142-.193.196-.297.015-.03.044-.056.057-.087.036-.09.042-.187.056-.281.007-.054.03-.104.03-.16 0-.077-.028-.153-.044-.23-.014-.07-.014-.141-.041-.209a1.167 1.167 0 0 0-.2-.301c-.022-.026-.03-.058-.054-.083h-.002c0-.001 0-.003-.002-.005l-3.515-3.5c-.037-.037-.085-.052-.127-.084a1.112 1.112 0 0 0-.19-.126 1.087 1.087 0 0 0-.205-.07 1.125 1.125 0 0 0-.225-.044 1.132 1.132 0 0 0-.209.01c-.078.01-.151.02-.227.045a1.08 1.08 0 0 0-.207.098c-.043.024-.092.032-.133.063L9.25 51.377l-1.97-1.963 5.247-5.22 9.54 9.382-2.03 2.01zm14.916-15.349c-.033-.005-.065.008-.099.006a1.146 1.146 0 0 0-.252.015 1.075 1.075 0 0 0-.404.15c-.065.04-.124.081-.181.134-.028.024-.062.036-.088.064L23.653 51.862l-9.468-9.311 6.197-6.165a1.168 1.168 0 0 0-.83-1.993v-.001l-4.854.03.061-3.517 6.79.058a15.2 15.2 0 0 0 10.897 4.596c.957 0 1.89-.1 2.799-.269.087.07.174.142.283.186l5.272 2.1.333 1.659.39 1.937-6.569-.935zm8.84.39l-.684-3.408 3.164-2.363.828 1.1 1.242 1.649-4.55 3.022zm8.212-6.193l-1.833 1.717-2.037-2.704 1.818-1.394c.34-.261.768-.368 1.188-.313.422.06.796.28 1.05.622a1.562 1.562 0 0 1-.187 2.072z" fill="#212121"></path>
    <path d="M29.755 40.565l-4.688-4.667a1.166 1.166 0 0 0-1.646 0l-4.687 4.667a1.172 1.172 0 0 0 0 1.654l4.687 4.667a1.165 1.165 0 0 0 1.646 0l4.688-4.667a1.167 1.167 0 0 0 0-1.654zm-5.51 3.848l-3.034-3.02 3.033-3.021 3.035 3.02-3.035 3.02zm13.302-33.321l-.564 2.266c.156.039 3.802.988 3.802 4.7h2.333c0-4.412-3.644-6.486-5.571-6.966zm5.571 9.3h-2.334v2.333h2.334v-2.333z" fill="#212121"></path>
  </symbol>
  <symbol viewBox="0 0 70 70" fill="none" xmlns="http://www.w3.org/2000/svg" id="clock">
    <g clip-path="url(#clip0)">
      <path d="M68.461 33.471C68.458 14.982 53.466-.004 34.975 0 16.485.004 1.5 14.996 1.504 33.486A33.479 33.479 0 0 0 24.799 65.37c.133.042.27.063.41.063.263 0 .521-.071.748-.205.296-.175.516-.453.62-.78l8.454-26.797a4.184 4.184 0 1 0-1.837-7.95L22.025 18.53a1.395 1.395 0 0 0-1.972 1.973l11.163 11.176a4.104 4.104 0 0 0 1.173 5.051l-8.055 25.535C8.414 56.4.262 38.74 6.126 22.82 11.991 6.9 29.65-1.252 45.571 4.613c15.92 5.864 24.072 23.524 18.207 39.444A30.72 30.72 0 0 1 47.455 61.5l-.87-4.1a1.394 1.394 0 0 0-2.294-.752l-8.393 7.494a1.394 1.394 0 0 0 .505 2.372l10.716 3.42a1.394 1.394 0 0 0 1.791-1.619l-.855-4.022a33.37 33.37 0 0 0 20.406-30.82zm-33.478-1.394a1.395 1.395 0 1 1 0 2.79 1.395 1.395 0 0 1 0-2.79zm4.594 32.515l4.778-4.262 1.319 6.213-6.097-1.951z" fill="#212121"></path>
      <path d="M33.588 6.967v2.79a1.395 1.395 0 1 0 2.79 0v-2.79a1.395 1.395 0 0 0-2.79 0zM8.479 32.077a1.395 1.395 0 0 0 0 2.79h2.79a1.395 1.395 0 1 0 0-2.79h-2.79zm53.008 2.79a1.395 1.395 0 1 0 0-2.79h-2.79a1.395 1.395 0 0 0 0 2.79h2.79z" fill="#2196F3"></path>
    </g>
    <defs>
      <clipPath id="clip0">
        <path fill="#fff" d="M0 0h70v70H0z"></path>
      </clipPath>
    </defs>
  </symbol>
  <symbol viewBox="0 0 70 70" fill="none" xmlns="http://www.w3.org/2000/svg" id="diagram">
    <g clip-path="url(#clip0)">
      <path d="M32.65 32.735h2.331V43.23H32.65V32.735zm9.328 4.665h2.332v5.83h-2.332V37.4zm-18.657 3.498h2.332v2.332h-2.332v-2.332zm-6.996-1.167h2.332v3.499h-2.332v-3.5z" fill="#2196F3"></path>
      <path d="M3.498 61.887h55.97a3.498 3.498 0 0 0 3.499-3.499v-4.664a3.498 3.498 0 0 0-3.498-3.498h-1.166v-29.08l6.623-6.274a3.518 3.518 0 1 0-1.633-1.668l-4.99 4.73v-2.69a3.498 3.498 0 0 0-3.498-3.498H8.162a3.498 3.498 0 0 0-3.498 3.498v34.982H3.498A3.498 3.498 0 0 0 0 53.724v4.664a3.498 3.498 0 0 0 3.498 3.499zM66.465 10.58a1.166 1.166 0 1 1 0 2.332 1.166 1.166 0 0 1 0-2.332zM6.996 15.244c0-.644.522-1.166 1.166-1.166h46.643c.644 0 1.166.522 1.166 1.166v4.897l-2.332 2.216v-4.78c0-.645-.523-1.167-1.167-1.167H10.495c-.644 0-1.167.523-1.167 1.166v29.152c0 .644.523 1.166 1.167 1.166h41.977c.645 0 1.167-.522 1.167-1.166V25.565l2.332-2.21v26.871H6.996V15.244zm10.495 15.16a3.497 3.497 0 1 0 2.422 6.011l4.053 2.034a1.167 1.167 0 0 0 1.392-.268l8.616-9.694 8.47 6.347c.455.34 1.089.304 1.501-.086l7.361-6.973v17.787H11.661v-26.82h39.645v5.82l-8.25 7.813-8.54-6.403a1.167 1.167 0 0 0-1.572.157l-8.734 9.828-3.265-1.633c.023-.14.038-.281.044-.423a3.498 3.498 0 0 0-3.498-3.498zm1.166 3.497a1.166 1.166 0 1 1-2.332 0 1.166 1.166 0 0 1 2.332 0zm6.996 18.657h11.66v1.166c0 .644-.521 1.166-1.165 1.166h-9.329a1.166 1.166 0 0 1-1.166-1.166v-1.166zm-23.32 1.166c0-.644.521-1.166 1.165-1.166h19.823v1.166a3.498 3.498 0 0 0 3.498 3.498h9.329a3.498 3.498 0 0 0 3.498-3.498v-1.166h19.823c.644 0 1.166.522 1.166 1.166v4.664c0 .644-.522 1.166-1.166 1.166H3.499a1.166 1.166 0 0 1-1.167-1.166v-4.664z" fill="#212121"></path>
    </g>
    <defs>
      <clipPath id="clip0">
        <path fill="#fff" d="M0 0h70v70H0z"></path>
      </clipPath>
    </defs>
  </symbol>
  <symbol viewBox="0 0 44 44" fill="none" xmlns="http://www.w3.org/2000/svg" id="Ellipse">
    <path d="M44 22a21.931 21.931 0 0 1-6.444 15.556A21.931 21.931 0 0 1 22 44a21.931 21.931 0 0 1-15.556-6.444A21.931 21.931 0 0 1 0 22 21.931 21.931 0 0 1 6.444 6.444 21.931 21.931 0 0 1 22 0a21.931 21.931 0 0 1 15.556 6.444A21.931 21.931 0 0 1 44 22z" fill="#fff"></path>
    <g clip-path="url(#clip0)" fill="#AFB1B8">
      <path d="M31.98 17.88c-.046-1.063-.218-1.793-.464-2.426a4.881 4.881 0 0 0-1.157-1.774 4.922 4.922 0 0 0-1.77-1.153c-.637-.246-1.363-.418-2.426-.464-1.07-.051-1.41-.063-4.126-.063-2.715 0-3.055.012-4.122.059-1.063.046-1.793.219-2.426.465a4.879 4.879 0 0 0-1.774 1.156 4.923 4.923 0 0 0-1.152 1.77c-.247.637-.418 1.363-.465 2.426-.051 1.07-.063 1.41-.063 4.126 0 2.715.012 3.055.059 4.122.047 1.063.219 1.793.465 2.426a4.932 4.932 0 0 0 1.156 1.774 4.92 4.92 0 0 0 1.77 1.152c.637.247 1.364.419 2.426.465 1.067.047 1.407.059 4.122.059 2.716 0 3.055-.012 4.122-.059 1.063-.046 1.793-.218 2.426-.464a5.116 5.116 0 0 0 2.927-2.927c.246-.637.418-1.364.465-2.426.047-1.067.058-1.407.058-4.122s-.004-3.055-.05-4.122zm-1.8 8.166c-.044.977-.208 1.504-.344 1.855a3.318 3.318 0 0 1-1.9 1.9c-.35.136-.882.3-1.855.343-1.055.047-1.371.059-4.04.059-2.668 0-2.989-.012-4.04-.059-.977-.043-1.504-.207-1.856-.344a3.076 3.076 0 0 1-1.148-.746 3.109 3.109 0 0 1-.747-1.148c-.136-.352-.3-.883-.343-1.856-.047-1.055-.059-1.372-.059-4.04 0-2.669.012-2.99.059-4.04.043-.977.207-1.504.343-1.856a3.04 3.04 0 0 1 .75-1.149 3.104 3.104 0 0 1 1.15-.746c.35-.136.882-.3 1.855-.344 1.055-.046 1.372-.058 4.04-.058 2.672 0 2.989.011 4.04.058.977.043 1.504.207 1.856.344.433.16.828.414 1.148.746.332.325.586.715.747 1.15.136.35.3.882.343 1.855.047 1.055.059 1.371.059 4.04 0 2.668-.012 2.98-.059 4.036z"></path>
      <path d="M22.037 16.864a5.139 5.139 0 0 0-5.138 5.138 5.139 5.139 0 1 0 5.138-5.138zm0 8.47a3.333 3.333 0 1 1 .001-6.666 3.333 3.333 0 0 1 0 6.667zm6.541-8.673a1.2 1.2 0 1 1-2.4 0 1.2 1.2 0 0 1 2.4 0z"></path>
    </g>
    <defs>
      <clipPath id="clip0">
        <path fill="#fff" transform="translate(12 12)" d="M0 0h20v20H0z"></path>
      </clipPath>
    </defs>
  </symbol>
  <symbol viewBox="0 0 16 12" fill="none" xmlns="http://www.w3.org/2000/svg" id="envelope">
    <path d="M14.5.116h-13C.673.116 0 .728 0 1.48v8.183c0 .752.673 1.364 1.5 1.364h13c.827 0 1.5-.612 1.5-1.364V1.48c0-.752-.673-1.364-1.5-1.364zm0 .91a.54.54 0 0 1 .192.035L8 6.334 1.308 1.06a.541.541 0 0 1 .192-.036h13zm0 9.092h-13c-.276 0-.5-.204-.5-.455V2.021L7.672 7.28A.53.53 0 0 0 8 7.39a.53.53 0 0 0 .328-.11L15 2.02v7.642c0 .251-.224.455-.5.455z" fill="#2196F3"></path>
  </symbol>
  <symbol viewBox="0 0 44 44" fill="none" xmlns="http://www.w3.org/2000/svg" id="facebook">
    <path d="M44 22a21.931 21.931 0 0 1-6.444 15.556A21.931 21.931 0 0 1 22 44a21.931 21.931 0 0 1-15.556-6.444A21.931 21.931 0 0 1 0 22 21.931 21.931 0 0 1 6.444 6.444 21.931 21.931 0 0 1 22 0a21.931 21.931 0 0 1 15.556 6.444A21.931 21.931 0 0 1 44 22z" fill="#fff"></path>
    <g clip-path="url(#clip0)">
      <path d="M25.33 15.32h1.827v-3.18a23.588 23.588 0 0 0-2.66-.14c-2.633 0-4.436 1.656-4.436 4.7v2.8h-2.905v3.555h2.905V32h3.561v-8.944h2.788l.442-3.555h-3.23v-2.45c0-1.027.277-1.73 1.709-1.73z" fill="#AFB1B8"></path>
    </g>
    <defs>
      <clipPath id="clip0">
        <path fill="#fff" transform="translate(12 12)" d="M0 0h20v20H0z"></path>
      </clipPath>
    </defs>
  </symbol>
  <symbol viewBox="0 0 44 44" fill="none" xmlns="http://www.w3.org/2000/svg" id="ink">
    <path d="M44 22a21.931 21.931 0 0 1-6.444 15.556A21.931 21.931 0 0 1 22 44a21.931 21.931 0 0 1-15.556-6.444A21.931 21.931 0 0 1 0 22 21.931 21.931 0 0 1 6.444 6.444 21.931 21.931 0 0 1 22 0a21.931 21.931 0 0 1 15.556 6.444A21.931 21.931 0 0 1 44 22z" fill="#fff"></path>
    <g clip-path="url(#clip0)" fill="#AFB1B8">
      <path d="M31.995 32H32v-7.336c0-3.588-.772-6.352-4.967-6.352-2.017 0-3.37 1.106-3.923 2.156h-.058v-1.821h-3.978v13.352h4.142v-6.611c0-1.741.33-3.425 2.486-3.425 2.124 0 2.156 1.987 2.156 3.536V32h4.137zM12.33 18.648h4.147V32H12.33V18.648zM14.402 12A2.402 2.402 0 0 0 12 14.402c0 1.325 1.076 2.424 2.402 2.424 1.325 0 2.401-1.099 2.401-2.424A2.403 2.403 0 0 0 14.402 12z"></path>
    </g>
    <defs>
      <clipPath id="clip0">
        <path fill="#fff" transform="translate(12 12)" d="M0 0h20v20H0z"></path>
      </clipPath>
    </defs>
  </symbol>
  <symbol viewBox="0 0 45 48" fill="none" xmlns="http://www.w3.org/2000/svg" id="logo1">
    <path d="M6 0l7.308 6.738h20.384v18.796L41 32.273V0H6z" fill="#AFB1B8"></path>
    <path d="M0 6.454v31.35h34v-12.46L13.523 6.461 0 6.454zM27.523 33.22H5.38V12.134h1.565v19.657h20.578v1.428zM9.791 43.7l.818-1.684h.684L10.1 44.263v1.308h-.62v-1.308l-1.194-2.247h.686l.818 1.685zm3.51 1.043h-1.376l-.288.828h-.642l1.342-3.555h.555l1.345 3.555h-.645l-.29-.828zm-1.203-.498h1.03l-.515-1.474-.515 1.474zm3.638.367c0-.165.045-.315.134-.452.09-.138.266-.302.53-.49a2.268 2.268 0 0 1-.29-.445.877.877 0 0 1-.081-.354c0-.279.084-.498.254-.66.169-.162.397-.243.683-.243.26 0 .47.076.635.229.166.151.25.34.25.564a.785.785 0 0 1-.113.41 1.34 1.34 0 0 1-.369.371l-.242.176.687.81c.099-.195.148-.412.148-.651h.515c0 .438-.102.796-.307 1.076l.522.618h-.688l-.2-.237a1.47 1.47 0 0 1-.909.286c-.351 0-.633-.093-.844-.278a.932.932 0 0 1-.315-.73zm1.177.534a.9.9 0 0 0 .561-.2l-.776-.915-.076.053c-.195.148-.293.318-.293.508 0 .164.053.298.159.4a.584.584 0 0 0 .425.154zm-.328-2.29c0 .137.084.309.252.515l.27-.185.077-.061a.44.44 0 0 0 .151-.344.311.311 0 0 0-.105-.237.37.37 0 0 0-.266-.1.348.348 0 0 0-.276.117.432.432 0 0 0-.103.295zm6.458 1.558c-.036.38-.176.675-.42.889-.244.211-.569.317-.974.317a1.4 1.4 0 0 1-.75-.2 1.333 1.333 0 0 1-.498-.574 2.064 2.064 0 0 1-.183-.862v-.332c0-.335.06-.63.178-.886.12-.256.29-.453.51-.591.224-.138.48-.207.772-.207.392 0 .708.106.947.32.24.213.379.514.418.903h-.615c-.03-.256-.104-.44-.225-.552-.119-.114-.294-.171-.525-.171-.268 0-.475.098-.62.295-.143.196-.216.483-.22.862v.315c0 .384.069.677.206.88.138.2.34.302.605.302.242 0 .425-.055.547-.164.122-.109.2-.29.232-.544h.615zm3.391-.528c0 .349-.06.655-.18.918a1.384 1.384 0 0 1-.518.606c-.223.14-.48.21-.772.21-.288 0-.545-.07-.771-.21a1.406 1.406 0 0 1-.523-.603 2.124 2.124 0 0 1-.185-.901v-.2c0-.347.06-.653.183-.918.124-.265.297-.468.52-.608.225-.142.482-.212.771-.212.29 0 .547.07.77.21.224.138.398.338.52.6.122.26.184.564.185.91v.198zm-.618-.185c0-.394-.075-.696-.224-.906a.728.728 0 0 0-.633-.315.73.73 0 0 0-.627.315c-.15.209-.226.504-.23.886v.206c0 .39.076.692.228.905.153.213.364.32.634.32.274 0 .484-.104.63-.312.148-.209.222-.513.222-.913V43.7z" fill="#AFB1B8"></path>
  </symbol>
  <symbol viewBox="0 0 40 52" fill="none" xmlns="http://www.w3.org/2000/svg" id="logo2">
    <path d="M16.977 2.935h.136c.253 0 .527.025.797.048 1.193.084 2.377.263 3.542.534V.654A21.09 21.09 0 0 0 17.797.07 29.24 29.24 0 0 0 16.319 0h-.427c-2.475.01-4.94.327-7.337.946-2.73.68-5.35 1.747-7.784 3.166v28.397a31.634 31.634 0 0 1 7.42-2.892 32.36 32.36 0 0 1 6.228-.956h.084a23.21 23.21 0 0 1 1.065-.03v-2.91a34.328 34.328 0 0 0-8.095 1.076c-.98.255-1.925.53-2.813.834l-1.012.344V5.833l.432-.208a28.275 28.275 0 0 1 10.516-2.683.627.627 0 0 1 .091 0c.403-.02.808-.03 1.205-.03h.455c.21.005.42.01.63.023z" fill="#AFB1B8"></path>
    <path d="M24.111 5.933a25.915 25.915 0 0 1-4.235-.344c-.45-.076-.893-.168-1.323-.267v28.072c1.82.45 3.69.67 5.566.656a29.943 29.943 0 0 0 7.336-.944 29.814 29.814 0 0 0 7.786-3.166V2.05a31.774 31.774 0 0 1-7.417 2.893c-2.52.648-5.111.98-7.713.99zm11.224.485l1.012-.34v22.148l-.432.209a27.761 27.761 0 0 1-5.174 1.859c-2.163.56-4.386.847-6.62.857-.668 0-1.33-.028-1.973-.084l-.693-.061V8.228l.807.054a28.52 28.52 0 0 0 1.854.056 34.263 34.263 0 0 0 8.406-1.078 44.55 44.55 0 0 0 2.813-.842zM2.737 42.212a1.492 1.492 0 0 0-1.125-.455 1.673 1.673 0 0 0-.65.122 1.463 1.463 0 0 0-.832.842c-.08.2-.12.413-.117.628v3.794c-.01.267.042.533.149.778.09.195.219.368.38.509.151.127.33.22.52.27.185.051.376.078.567.078.212.002.42-.043.612-.132a1.599 1.599 0 0 0 .96-1.465v-.424h-.992v.338a.881.881 0 0 1-.059.338.608.608 0 0 1-.144.214.697.697 0 0 1-.415.145.503.503 0 0 1-.465-.204.899.899 0 0 1-.132-.508v-3.538c-.006-.196.036-.39.122-.567a.507.507 0 0 1 .485-.229.527.527 0 0 1 .443.214.806.806 0 0 1 .165.509v.328h.981v-.387a1.788 1.788 0 0 0-.121-.664 1.562 1.562 0 0 0-.332-.534zm5.892-.042a1.765 1.765 0 0 0-1.129-.418c-.202 0-.402.037-.592.107A1.559 1.559 0 0 0 6 42.7c-.1.231-.149.482-.144.735v3.638c-.007.256.042.51.144.745.09.196.221.37.385.509.151.14.33.25.523.32.19.07.39.106.592.107a1.714 1.714 0 0 0 1.129-.427c.158-.142.285-.315.374-.509.102-.234.151-.489.144-.745v-3.639a1.77 1.77 0 0 0-.144-.734 1.643 1.643 0 0 0-.374-.532zm-.463 4.904a.654.654 0 0 1-.198.527.727.727 0 0 1-.933 0 .652.652 0 0 1-.197-.527v-3.639a.654.654 0 0 1 .197-.526.727.727 0 0 1 .933 0 .651.651 0 0 1 .198.526v3.64zm8.201 1.626v-6.89h-.953l-1.252 3.647h-.018l-1.262-3.646h-.944v6.888h.984v-4.19h.018l.964 2.962h.49l.972-2.962h.018v4.19h.983zm5.591-6.406c-.151-.17-.343-.3-.556-.377a2.184 2.184 0 0 0-.714-.107h-1.462v6.89h.982v-2.691h.506c.306.014.61-.051.885-.188a1.43 1.43 0 0 0 .539-.527c.113-.183.19-.387.225-.6a4.9 4.9 0 0 0 .053-.783c.01-.33-.023-.662-.096-.984a1.465 1.465 0 0 0-.362-.633zm-.506 2.1a.868.868 0 0 1-.09.359.552.552 0 0 1-.254.241 1.006 1.006 0 0 1-.463.087h-.447v-2.342h.505a.942.942 0 0 1 .443.086.556.556 0 0 1 .23.254 1 1 0 0 1 .086.384v.458c0 .16.01.326 0 .473h-.01zm5.155-2.584h-.804l-1.518 6.89h.982l.288-1.48h1.338l.289 1.48h.981l-1.556-6.89zm-.905 4.471l.483-2.497h.018l.48 2.497h-.981zm7.248-.321h-.018l-1.483-4.15h-.943v6.89h.981v-4.143h.02l1.5 4.142h.924v-6.888h-.981v4.15zm5.998-4.15l-.79 2.74h-.02l-.79-2.74H36.31l1.348 3.978v2.911h.982v-2.911l1.348-3.977h-1.04zM0 50.645h.473v1.327h.321v-1.328h.47v-.272H0v.273zm3.977-.273l-.62 1.6h.341l.132-.364h.637l.137.364h.35l-.636-1.6h-.341zm-.05.967l.217-.593.217.593h-.435zm3.981.043h.37v.206a.613.613 0 0 1-.38.135.404.404 0 0 1-.34-.153.669.669 0 0 1-.118-.417c0-.356.154-.534.46-.534a.337.337 0 0 1 .362.255l.316-.062c-.068-.312-.293-.47-.678-.47a.804.804 0 0 0-.559.206.78.78 0 0 0-.23.615.873.873 0 0 0 .205.6.776.776 0 0 0 .607.235.96.96 0 0 0 .678-.255v-.63h-.693v.27zm4.014-1.01H11.6v1.6h1.12V51.7h-.797v-1.328zm3.396 0h-.324v1.6h.324v-1.6zm3.318 1.068l-.655-1.068h-.314v1.6h.301v-1.045l.643 1.045h.321v-1.6h-.296v1.069zm3.001-.173h.797v-.272h-.797v-.35h.857v-.273h-1.181v1.6h1.214V51.7h-.89v-.433zm7.275-.264h-.63v-.63h-.321v1.599h.321v-.7h.63v.7h.321v-1.6h-.32v.631zm3.018.264h.8v-.272h-.8v-.35h.86v-.273h-1.18v1.6h1.212V51.7h-.89v-.433zm4.093.001c.279-.044.42-.191.42-.445a.383.383 0 0 0-.156-.356.904.904 0 0 0-.468-.094h-.678v1.599h.32v-.669h.064a.432.432 0 0 1 .2.036.336.336 0 0 1 .114.117l.349.508h.384l-.194-.312a1.114 1.114 0 0 0-.355-.384zm-.323-.222h-.238v-.401h.253a.84.84 0 0 1 .326.038.208.208 0 0 1 .046.255.208.208 0 0 1-.061.07.912.912 0 0 1-.326.038zm3.41.221h.796v-.272h-.797v-.35h.86v-.273h-1.183v1.6H40V51.7h-.89v-.433z" fill="#AFB1B8"></path>
  </symbol>
  <symbol viewBox="0 0 41 42" fill="none" xmlns="http://www.w3.org/2000/svg" id="logo3">
    <path d="M6.346 40.708c.015 0 .03.004.043.01a.111.111 0 0 1 .036.024l.206.21c-.16.17-.357.306-.579.398a2.12 2.12 0 0 1-.82.144 2.06 2.06 0 0 1-.772-.134 1.676 1.676 0 0 1-.581-.377 1.695 1.695 0 0 1-.376-.583 2.059 2.059 0 0 1-.13-.747 1.92 1.92 0 0 1 .14-.75c.09-.216.226-.414.4-.582.175-.164.385-.294.617-.38a2.3 2.3 0 0 1 .795-.133 2.01 2.01 0 0 1 .738.121c.203.082.39.196.553.337l-.173.224a.171.171 0 0 1-.043.041.11.11 0 0 1-.07.017.16.16 0 0 1-.074-.024l-.093-.06-.129-.076a1.404 1.404 0 0 0-.406-.134 1.677 1.677 0 0 0-.306-.024 1.565 1.565 0 0 0-.571.1c-.17.064-.322.16-.448.282-.128.13-.227.283-.29.449-.073.19-.108.39-.106.592-.003.205.033.409.106.602.062.164.16.316.285.446.118.121.264.216.427.277.168.065.348.097.53.096.105.001.21-.005.314-.02a1.17 1.17 0 0 0 .476-.16c.072-.044.14-.093.203-.148a.155.155 0 0 1 .098-.038zm5.941-1.055a1.93 1.93 0 0 1-.139.742 1.608 1.608 0 0 1-.387.576 1.76 1.76 0 0 1-.608.379 2.353 2.353 0 0 1-1.564 0 1.693 1.693 0 0 1-.995-.962 2.059 2.059 0 0 1 0-1.487 1.74 1.74 0 0 1 .39-.585 1.8 1.8 0 0 1 .605-.365 2.314 2.314 0 0 1 1.564 0 1.708 1.708 0 0 1 .995.955c.095.239.143.492.14.747zm-.54 0a1.672 1.672 0 0 0-.098-.597 1.238 1.238 0 0 0-.275-.446 1.213 1.213 0 0 0-.435-.282 1.7 1.7 0 0 0-1.137 0 1.21 1.21 0 0 0-.712.728c-.13.389-.13.805 0 1.194.058.165.153.317.278.446.12.122.269.217.434.28.367.126.77.126 1.137 0a1.22 1.22 0 0 0 .435-.28 1.26 1.26 0 0 0 .275-.447c.07-.192.102-.394.098-.596zm4.593.625l.055.134a2.827 2.827 0 0 1 .126-.264l1.314-2.218c.026-.038.049-.062.075-.07a.33.33 0 0 1 .108-.011h.388v3.606h-.46v-2.764a1.028 1.028 0 0 1 0-.124l-1.322 2.248a.2.2 0 0 1-.078.083.22.22 0 0 1-.113.03h-.074a.22.22 0 0 1-.113-.03.197.197 0 0 1-.078-.083l-1.36-2.262v2.895h-.445v-3.6h.388a.33.33 0 0 1 .108.013.147.147 0 0 1 .072.069l1.343 2.22a.777.777 0 0 1 .067.128zm4.947-.178v1.35h-.514v-3.602h1.147c.216-.003.432.023.64.08.167.043.321.12.453.224a.924.924 0 0 1 .257.353c.06.147.09.303.088.46.002.158-.03.315-.096.461a.989.989 0 0 1-.277.36c-.133.109-.288.19-.456.24-.2.058-.41.087-.62.083l-.622-.01zm0-.388h.622c.136.002.27-.016.399-.054a.852.852 0 0 0 .288-.156.636.636 0 0 0 .175-.238.73.73 0 0 0 .062-.303.645.645 0 0 0-.052-.294.689.689 0 0 0-.18-.246 1.053 1.053 0 0 0-.692-.193h-.622v1.484zm6.913 1.743h-.406a.184.184 0 0 1-.113-.033.221.221 0 0 1-.067-.084l-.35-.871h-1.756l-.363.871a.196.196 0 0 1-.064.081.184.184 0 0 1-.116.036h-.406l1.543-3.607h.535l1.564 3.607zm-2.546-1.34h1.451l-.612-1.467a2.504 2.504 0 0 1-.116-.34l-.06.19c-.017.057-.038.11-.056.152l-.607 1.466zm4.769-2.25a.233.233 0 0 1 .078.064l2.25 2.72v-2.801h.46v3.607h-.257a.236.236 0 0 1-.105-.021.283.283 0 0 1-.082-.067l-2.249-2.717a.855.855 0 0 1 0 .124v2.681h-.46v-3.607h.273c.032 0 .063.005.092.017zm6.58 2.155v1.433h-.515V40.02l-1.422-2.172h.46a.176.176 0 0 1 .11.031.302.302 0 0 1 .07.082l.89 1.4a1.495 1.495 0 0 1 .157.32l.067-.155c.025-.056.054-.111.088-.164l.877-1.411a.365.365 0 0 1 .067-.076.164.164 0 0 1 .11-.036h.466l-1.425 2.181zm-20.917-8.224c.224.026.45.047.679.067 3.47-1.441 6.407-3.8 8.441-6.78 2.034-2.98 3.077-6.451 2.997-9.979l-3.825-3.55a19.216 19.216 0 0 1-1.05 11.213c-1.465 3.575-3.972 6.701-7.242 9.029z" fill="#AFB1B8"></path>
    <path d="M14.72 31.63l.103.02c3.494-2.32 6.158-5.558 7.648-9.298a18.567 18.567 0 0 0 .706-11.678L17.73 5.62c2.203 4.155 3.09 8.806 2.557 13.41-.532 4.605-2.463 8.975-5.567 12.602zm18.476-12.358c-.926 3.876-3.173 7.371-6.41 9.967a20.247 20.247 0 0 1-3.045 2.03 18.343 18.343 0 0 0 7.08-3.715c2.022-1.725 3.59-3.858 4.584-6.234l-2.21-2.048z" fill="#AFB1B8"></path>
    <path d="M32.33 18.701l-3.146-2.919c-.06 3.328-1.08 6.58-2.953 9.42-1.873 2.838-4.532 5.16-7.699 6.722h.016c.705 0 1.41-.039 2.111-.117 2.96-1.12 5.575-2.904 7.611-5.191 2.036-2.287 3.43-5.006 4.06-7.915zM15.176 3.487L11.423 0c-3.355 1.203-6.24 3.318-8.278 6.068C1.107 8.818.01 12.075 0 15.412c.013 3.688 1.35 7.267 3.801 10.17 2.451 2.903 5.875 4.964 9.731 5.858 3.442-3.891 5.457-8.7 5.753-13.727.295-5.027-1.144-10.01-4.11-14.226zM41 18.164c-.013-4.375-1.892-8.568-5.227-11.662-3.334-3.094-7.852-4.837-12.567-4.85a18.825 18.825 0 0 0-6.371 1.1l22.977 21.322A15.297 15.297 0 0 0 41 18.164z" fill="#AFB1B8"></path>
  </symbol>
  <symbol viewBox="0 0 80 41" fill="none" xmlns="http://www.w3.org/2000/svg" id="logo4">
    <path d="M12.402 12.497H12.4c-2.263 0-4.097 1.74-4.097 3.888v.003c0 2.147 1.834 3.888 4.096 3.888h.003c2.263 0 4.097-1.741 4.097-3.888v-.003c0-2.147-1.834-3.888-4.097-3.888zm30.235-1.243c-.007-2.982-1.258-5.84-3.48-7.95C36.938 1.194 33.926.007 30.784 0c-3.143.005-6.156 1.193-8.379 3.302-2.223 2.11-3.474 4.969-3.48 7.952v16.447s23.71-2.507 23.713-16.444v-.003zM0 33.099c.006 2.075.877 4.064 2.422 5.532 1.546 1.467 3.64 2.295 5.827 2.3 2.186-.005 4.28-.832 5.826-2.3 1.546-1.467 2.417-3.455 2.423-5.53V21.659S0 23.403 0 33.099zm8.25 2.05a2.24 2.24 0 0 1-1.2-.345 2.077 2.077 0 0 1-.797-.92 1.954 1.954 0 0 1-.122-1.185 2.02 2.02 0 0 1 .59-1.05 2.198 2.198 0 0 1 1.107-.561c.419-.08.853-.039 1.248.117.395.155.732.418.97.755a1.977 1.977 0 0 1 .201 1.926c-.108.25-.267.477-.467.668-.201.191-.44.343-.702.446a2.26 2.26 0 0 1-.829.157v-.007zm16.839-1.161H23.4v1.743h-.878v-4.266H25.3v.712h-1.9v1.102h1.688v.709zm4.225-.293c0 .42-.075.788-.223 1.104-.149.317-.361.56-.639.733a1.755 1.755 0 0 1-.95.258 1.77 1.77 0 0 1-.945-.255 1.696 1.696 0 0 1-.645-.727 2.51 2.51 0 0 1-.231-1.09v-.21c0-.42.075-.79.225-1.108.153-.32.367-.566.642-.735.277-.172.594-.258.95-.258.354 0 .67.086.945.258.278.17.492.415.642.735.152.318.229.686.229 1.104v.19zm-.891-.194c0-.447-.08-.787-.24-1.02a.783.783 0 0 0-.686-.348.782.782 0 0 0-.683.346c-.16.229-.24.565-.243 1.008v.208c0 .435.08.773.24 1.014.16.24.391.36.692.36a.775.775 0 0 0 .68-.346c.158-.232.238-.57.24-1.014v-.208zm3.741 1.11a.447.447 0 0 0-.176-.38c-.117-.09-.328-.184-.633-.281a4.565 4.565 0 0 1-.723-.293c-.485-.262-.727-.614-.727-1.058 0-.23.065-.435.194-.615a1.27 1.27 0 0 1 .56-.425c.243-.102.517-.152.82-.152.304 0 .576.055.814.167.238.11.423.264.554.466.133.2.199.43.199.685h-.879c0-.195-.062-.347-.185-.454-.123-.11-.296-.164-.518-.164-.215 0-.382.046-.501.138a.426.426 0 0 0-.179.357c0 .139.07.255.208.349.14.093.347.181.618.263.5.15.865.337 1.093.56.229.223.343.5.343.832 0 .37-.14.66-.419.87-.28.21-.655.314-1.128.314-.328 0-.627-.06-.896-.18a1.438 1.438 0 0 1-.619-.494 1.27 1.27 0 0 1-.21-.727h.881c0 .47.281.706.844.706.209 0 .372-.042.49-.126a.418.418 0 0 0 .175-.357zm4.69-2.434h-1.306v3.554h-.88v-3.554H33.38v-.712h3.474v.712zm3.07 1.705h-1.687v1.143h1.98v.706h-2.859v-4.266h2.854v.712h-1.975v1.017h1.688v.688zm2.389.287h-.7v1.562h-.88v-4.266h1.585c.504 0 .893.113 1.166.337.274.225.41.542.41.952 0 .291-.063.535-.19.73a1.284 1.284 0 0 1-.571.463l.923 1.743v.041h-.944l-.8-1.562zm-.7-.711h.708c.221 0 .392-.056.513-.167a.607.607 0 0 0 .182-.466c0-.202-.058-.36-.173-.475-.114-.115-.288-.173-.525-.173h-.706v1.28zm5.325.77v1.503h-.878v-4.266h1.664c.32 0 .601.059.843.176.245.117.432.284.563.501.13.215.196.46.196.735 0 .418-.143.748-.43.99-.286.24-.681.361-1.187.361h-.77zm0-.712h.786c.232 0 .409-.055.53-.164.123-.11.184-.266.184-.469a.703.703 0 0 0-.184-.507c-.123-.128-.293-.195-.51-.199h-.806v1.34zm5.561.366h-1.688v1.143h1.981v.706h-2.86v-4.266h2.854v.712h-1.974v1.017h1.687v.688zm4.078-1.705h-1.306v3.554h-.88v-3.554h-1.288v-.712h3.474v.712zm3.07 1.705H57.96v1.143h1.98v.706h-2.859v-4.266h2.854v.712H57.96v1.017h1.688v.688zm2.388.287h-.7v1.562h-.879v-4.266h1.585c.504 0 .893.113 1.166.337.273.225.41.542.41.952 0 .291-.063.535-.19.73a1.284 1.284 0 0 1-.572.463l.923 1.743v.041h-.943l-.8-1.562zm-.7-.711h.709c.22 0 .392-.056.513-.167a.607.607 0 0 0 .181-.466c0-.202-.057-.36-.173-.475-.113-.115-.288-.173-.524-.173h-.706v1.28zm5.165 1.154a.447.447 0 0 0-.176-.381c-.117-.09-.328-.184-.633-.281a4.56 4.56 0 0 1-.723-.293c-.485-.262-.727-.614-.727-1.058 0-.23.065-.435.194-.615a1.27 1.27 0 0 1 .56-.425c.243-.102.517-.152.82-.152.304 0 .576.055.814.167.238.11.423.264.554.466.132.2.199.43.199.685h-.88c0-.195-.06-.347-.184-.454-.123-.11-.296-.164-.518-.164-.215 0-.382.046-.501.138a.426.426 0 0 0-.179.357c0 .139.07.255.208.349a2.4 2.4 0 0 0 .618.263c.5.15.865.337 1.093.56.229.223.343.5.343.832 0 .37-.14.66-.42.87-.278.21-.654.314-1.127.314-.328 0-.627-.06-.896-.18a1.438 1.438 0 0 1-.619-.494 1.27 1.27 0 0 1-.21-.727h.881c0 .47.281.706.844.706.209 0 .372-.042.49-.126a.418.418 0 0 0 .175-.357z" fill="#2196F3"></path>
  </symbol>
  <symbol viewBox="0 0 59 47" fill="none" xmlns="http://www.w3.org/2000/svg" id="logo5">
    <path d="M4.488 39.278c.23.285.352.643.346 1.01a1.604 1.604 0 0 1-.536 1.277c-.447.339-1 .504-1.559.466H0v-6.405h2.683a2.284 2.284 0 0 1 1.487.426 1.464 1.464 0 0 1 .52 1.198c.016.353-.095.7-.311.98a1.46 1.46 0 0 1-.817.5c.363.067.692.26.926.548zm-3.213-.967H2.42c.261.02.52-.056.73-.213a.761.761 0 0 0 .246-.626.788.788 0 0 0-.243-.625 1.106 1.106 0 0 0-.751-.216H1.275v1.68zm1.988 2.456a.796.796 0 0 0 .271-.65.81.81 0 0 0-.277-.658 1.18 1.18 0 0 0-.78-.231H1.276v1.761h1.218c.274.016.546-.062.77-.222zm6.709 1.264L8.48 39.528h-.561v2.503H6.635v-6.405h2.43a2.39 2.39 0 0 1 1.693.545 2.047 2.047 0 0 1 .18 2.65c-.3.345-.709.575-1.159.65l1.59 2.56H9.972zM7.92 38.655h1.05c.73 0 1.094-.323 1.094-.97a.956.956 0 0 0-.268-.72 1.135 1.135 0 0 0-.826-.26H7.906l.013 1.95zm9.07 2.087h-2.558l-.452 1.29h-1.346l2.35-6.334h1.455l2.34 6.333h-1.346l-.442-1.289zm-.342-.97l-.935-2.703-.935 2.703h1.87zm9.128 2.259H24.5l-2.857-4.355v4.355h-1.272v-6.405h1.272l2.857 4.38v-4.38h1.275v6.405zm7.274-1.533a2.757 2.757 0 0 1-1.153 1.13c-.555.281-1.17.42-1.792.403h-2.27v-6.405h2.27a3.816 3.816 0 0 1 1.792.395c.488.246.89.636 1.153 1.117a3.735 3.735 0 0 1 0 3.36zm-1.459-.153a2.352 2.352 0 0 0 0-3.057 2.21 2.21 0 0 0-1.595-.545h-.885v4.146h.885a2.21 2.21 0 0 0 1.595-.544zM17.789 0S34.24 6.236 33.89 15.26v15.263s-16.439-6.24-16.096-15.263L17.789 0zm30.758 26.95A22.486 22.486 0 0 1 59 23.082v-4.778a21.467 21.467 0 0 0-10.453 8.646z" fill="#AFB1B8"></path>
    <path d="M46.68 28.389A22.382 22.382 0 0 1 59 17.303V3.536s-23.43 8.883-22.934 21.733V47s1.044-.397 2.687-1.142c0-.695 0-1.395.075-2.1A22.606 22.606 0 0 1 46.68 28.39z" fill="#AFB1B8"></path>
    <path d="M44.453 36.462c.123-1.507.397-2.998.82-4.45a21.04 21.04 0 0 0-4.962 13.126 68.028 68.028 0 0 0 4.506-2.384 22.573 22.573 0 0 1-.364-6.292zm.932.078a21.58 21.58 0 0 0 .29 5.698c6.4-3.846 13.593-9.788 13.316-16.968v-.626a20.972 20.972 0 0 0-12.18 5.713 21.492 21.492 0 0 0-1.426 6.183z" fill="#AFB1B8"></path>
  </symbol>
  <symbol viewBox="0 0 89 45" fill="none" xmlns="http://www.w3.org/2000/svg" id="logo6">
    <path d="M44.74 20.798a3.113 3.113 0 0 1-.57-2.003V15.89c0-.891.189-1.568.567-2.03.378-.464 1.028-.694 1.949-.692.865 0 1.48.197 1.843.59.396.504.589 1.118.544 1.739v.682h-1.547v-.691a3.76 3.76 0 0 0-.045-.677.666.666 0 0 0-.221-.402.852.852 0 0 0-.561-.157.903.903 0 0 0-.59.166.784.784 0 0 0-.257.443 3.593 3.593 0 0 0-.06.718v3.526c-.025.34.044.68.198.99a.731.731 0 0 0 .31.24.8.8 0 0 0 .399.055.804.804 0 0 0 .548-.16.722.722 0 0 0 .23-.428c.037-.233.053-.47.049-.706v-.715h1.547v.653a2.785 2.785 0 0 1-.535 1.826c-.355.432-.961.648-1.852.648-.891 0-1.564-.23-1.946-.71zm6.446.03c-.391-.452-.587-1.111-.587-1.983v-3.056c0-.863.196-1.516.587-1.96.39-.443 1.044-.663 1.961-.661.91 0 1.56.22 1.952.662.39.443.59 1.096.59 1.96v3.055c0 .863-.2 1.525-.597 1.98-.397.455-1.044.683-1.945.683-.9 0-1.567-.23-1.961-.68zm2.682-.733a1.8 1.8 0 0 0 .186-.904v-3.742a1.755 1.755 0 0 0-.183-.886.736.736 0 0 0-.316-.244.805.805 0 0 0-.408-.052.814.814 0 0 0-.41.053.747.747 0 0 0-.318.243 1.72 1.72 0 0 0-.185.886v3.76c-.02.31.044.62.185.904a.96.96 0 0 0 .327.224 1.032 1.032 0 0 0 .796 0 .96.96 0 0 0 .326-.224v-.018zm3.682-6.838h1.667l1.253 5.638 1.282-5.638h1.622l.163 8.138H62.34l-.128-5.656-1.238 5.656h-.961l-1.282-5.677-.119 5.677H57.4l.15-8.138zm7.856 0h2.596c1.496 0 2.244.77 2.244 2.31 0 1.476-.788 2.213-2.362 2.21h-.885v3.618h-1.602l.01-8.138zm2.218 3.478c.158.018.319.005.471-.04.152-.044.292-.118.41-.217.184-.275.265-.598.231-.92a2.715 2.715 0 0 0-.077-.738.612.612 0 0 0-.118-.223.672.672 0 0 0-.202-.164 1.565 1.565 0 0 0-.715-.13h-.622v2.432h.622zm4.932-3.478h1.721l1.766 8.138h-1.494l-.349-1.877h-1.535l-.36 1.877H70.79l1.766-8.138zm1.471 5.319l-.6-3.416-.599 3.416h1.199zm3.442-5.319h1.122l2.147 4.642v-4.642h1.33v8.138h-1.067l-2.16-4.846v4.846h-1.375l.003-8.138zm7.715 5.035l-1.786-5.024h1.504l1.09 3.227 1.022-3.227h1.47l-1.762 5.024v3.103h-1.538v-3.103zm-37.969 6.661v.426h-1.308v3.306h-.548V25.38h-1.314v-.426h3.17zm4.099 3.733h-.423a.18.18 0 0 1-.119-.036.192.192 0 0 1-.07-.085l-.378-.887H48.51l-.378.887a.249.249 0 0 1-.058.1.186.186 0 0 1-.119.036h-.423l1.603-3.733h.557l1.622 3.718zM48.66 27.3h1.513l-.64-1.52a2.838 2.838 0 0 1-.12-.35l-.06.197-.058.157-.635 1.516zm5.417 1.02c.1.004.2.004.3 0a2 2 0 0 0 .257-.045 1.88 1.88 0 0 0 .231-.068c.07-.027.141-.06.215-.092v-.84h-.641a.124.124 0 0 1-.087-.029.085.085 0 0 1-.032-.068v-.286h1.244v1.43a2.38 2.38 0 0 1-1.077.381 4.57 4.57 0 0 1-.468.024 2.307 2.307 0 0 1-.808-.139 1.945 1.945 0 0 1-.64-.39 1.8 1.8 0 0 1-.414-.591 1.975 1.975 0 0 1-.147-.774 2.05 2.05 0 0 1 .144-.78c.092-.222.233-.423.413-.592.183-.168.401-.3.641-.387.275-.095.566-.142.859-.139.15 0 .298.01.446.033a2.03 2.03 0 0 1 .701.242c.099.058.192.123.28.195l-.155.23a.139.139 0 0 1-.052.052.153.153 0 0 1-.073.02.2.2 0 0 1-.099-.03 1.96 1.96 0 0 1-.157-.089 1.377 1.377 0 0 0-.215-.1 1.91 1.91 0 0 0-.295-.083 2.31 2.31 0 0 0-.407-.033 1.784 1.784 0 0 0-.618.104 1.34 1.34 0 0 0-.471.295 1.307 1.307 0 0 0-.298.464c-.144.405-.144.84 0 1.245.07.175.179.335.32.47.132.128.291.229.468.295.204.065.42.09.635.074zm5.108-.06h1.75v.425H58.65v-3.732h.548l-.013 3.307zm3.571.425h-.548v-3.732h.548v3.732zm2.038-3.715c.032.018.06.041.083.069l2.343 2.813a.923.923 0 0 1 0-.133V24.94h.478v3.747h-.276a.243.243 0 0 1-.119-.02.312.312 0 0 1-.086-.072l-2.34-2.81v2.902h-.458v-3.733h.285a.23.23 0 0 1 .09.018zm6.938-.017v.41H69.79v1.233h1.574v.396H69.79v1.274h1.942v.41h-2.506v-3.723h2.506zM14.303 1.903l24.335 6.371v22.327l-24.334-6.369V1.903zM12.743 0v25.317l27.453 7.19V7.193L12.743 0z" fill="#AFB1B8"></path>
    <path d="M27.456 44.259L0 37.063V11.75l27.456 7.193V44.26zM13.198 1.616l24.017 6.292-10.214 9.42-24.02-6.294 10.217-9.418zM12.743 0L0 11.75l27.456 7.192 12.74-11.75L12.743 0zm16.259 42.835L40.196 32.51l-11.194-2.935v13.26z" fill="#AFB1B8"></path>
  </symbol>
  <symbol viewBox="0 0 10 15" fill="none" xmlns="http://www.w3.org/2000/svg" id="smartphone">
    <path d="M8.5.142h-7C.673.142 0 .754 0 1.506v11.82c0 .752.673 1.364 1.5 1.364h7c.827 0 1.5-.612 1.5-1.364V1.506C10 .754 9.327.142 8.5.142zm-7 .91h7c.276 0 .5.203.5.454v9.547H1V1.506c0-.25.224-.454.5-.454zm7 12.729h-7c-.276 0-.5-.204-.5-.455v-1.364h8v1.364c0 .251-.224.455-.5.455z" fill="#757575"></path>
    <path d="M2.354 12.55a.426.426 0 0 1 0 .643.536.536 0 0 1-.708 0 .426.426 0 0 1 0-.643.536.536 0 0 1 .708 0z" fill="#757575"></path>
  </symbol>
  <symbol viewBox="0 0 44 44" fill="none" xmlns="http://www.w3.org/2000/svg" id="twitter">
    <path d="M44 22a21.931 21.931 0 0 1-6.444 15.556A21.931 21.931 0 0 1 22 44a21.931 21.931 0 0 1-15.556-6.444A21.931 21.931 0 0 1 0 22 21.931 21.931 0 0 1 6.444 6.444 21.931 21.931 0 0 1 22 0a21.931 21.931 0 0 1 15.556 6.444A21.931 21.931 0 0 1 44 22z" fill="#fff"></path>
    <g clip-path="url(#clip0)">
      <path d="M32 15.799a8.55 8.55 0 0 1-2.363.647 4.076 4.076 0 0 0 1.804-2.266 8.191 8.191 0 0 1-2.6.992 4.099 4.099 0 0 0-7.093 2.804c0 .325.028.638.096.935-3.409-.166-6.425-1.8-8.452-4.289a4.128 4.128 0 0 0-.56 2.073c0 1.42.73 2.679 1.82 3.407a4.048 4.048 0 0 1-1.852-.505v.045a4.119 4.119 0 0 0 3.285 4.03 4.09 4.09 0 0 1-1.075.134 3.62 3.62 0 0 1-.776-.07c.531 1.624 2.039 2.818 3.831 2.857a8.238 8.238 0 0 1-5.084 1.748 7.67 7.67 0 0 1-.981-.056 11.543 11.543 0 0 0 6.29 1.84c7.545 0 11.67-6.25 11.67-11.668 0-.18-.006-.356-.015-.53A8.179 8.179 0 0 0 32 15.8z" fill="#AFB1B8"></path>
    </g>
    <defs>
      <clipPath id="clip0">
        <path fill="#fff" transform="translate(12 12)" d="M0 0h20v20H0z"></path>
      </clipPath>
    </defs>
  </symbol>
</svg>